<?xml version="1.0" standalone="no"?>
<!DOCTYPE svg PUBLIC "-//W3C//DTD SVG 20010904//EN"
 "http://www.w3.org/TR/2001/REC-SVG-20010904/DTD/svg10.dtd">
<svg version="1.0" xmlns="http://www.w3.org/2000/svg"
 width="800.000000pt" height="800.000000pt" viewBox="0 0 800.000000 800.000000"
 preserveAspectRatio="xMidYMid meet">
<metadata>
Created by potrace 1.11, written by Peter Selinger 2001-2013
</metadata>
<g transform="translate(0.000000,800.000000) scale(0.100000,-0.100000)"
fill="#000000" stroke="none">
<path d="M0 4000 l0 -4000 4000 0 4000 0 0 4000 0 4000 -4000 0 -4000 0 0
-4000z m4066 3301 c-10 -11 -24 -37 -32 -58 -8 -22 -13 -30 -14 -18 0 11 9 35
20 53 17 28 18 32 4 32 -46 0 -123 -79 -173 -177 -12 -24 -24 -43 -26 -43 -3
0 -4 26 -3 58 l1 57 6 -45 6 -45 14 34 c20 48 87 129 124 152 18 10 45 19 61
19 28 0 29 -1 12 -19z m-206 -56 l-10 -40 5 45 5 45 -30 -35 c-34 -40 -104
-154 -121 -197 -5 -15 -53 -70 -105 -120 l-95 -92 50 -75 c28 -41 55 -77 60
-80 5 -3 46 12 92 33 46 22 102 42 124 45 39 6 39 5 -7 -8 -99 -29 -238 -107
-319 -178 l-27 -23 27 -68 27 -68 122 86 c68 47 131 85 140 85 10 0 30 -24 51
-63 19 -34 45 -77 59 -94 24 -32 27 -33 98 -33 l73 0 29 43 c16 23 41 66 56
95 17 34 33 52 45 52 10 0 71 -36 135 -81 65 -44 122 -77 126 -72 10 12 40 91
40 108 0 16 -119 103 -195 143 -27 14 -79 36 -115 48 -36 13 -60 23 -53 23 20
1 104 -29 167 -60 33 -17 62 -26 65 -22 3 5 30 44 60 88 l54 79 -49 42 c-27
24 -77 60 -111 80 -36 21 -63 44 -63 53 0 27 38 80 72 101 l32 19 -30 11 c-43
17 -129 7 -164 -19 -17 -12 -30 -17 -30 -11 0 5 4 10 9 10 5 0 7 9 4 19 -6 24
23 76 51 90 19 9 19 10 -8 10 -16 1 -27 4 -23 7 3 4 23 3 44 -1 l38 -7 -31
-13 c-35 -14 -64 -50 -64 -77 0 -16 3 -16 35 -2 45 19 109 18 151 -2 42 -20
43 -30 5 -37 -31 -6 -81 -67 -81 -97 0 -8 24 -28 54 -43 29 -15 78 -50 109
-78 l55 -49 44 62 c51 73 71 87 96 72 31 -20 24 -49 -31 -131 -43 -62 -53 -83
-45 -96 5 -10 7 -25 5 -35 -4 -13 -5 -12 -6 5 -2 41 -18 32 -66 -38 l-49 -70
35 -28 c19 -16 37 -26 41 -23 3 4 16 34 27 67 11 33 20 52 21 43 0 -9 -14 -53
-31 -97 l-32 -80 45 -53 c144 -169 231 -386 263 -655 l6 -53 -821 0 -820 0 0
46 c0 62 35 228 66 316 39 110 110 239 181 329 l64 80 -31 79 c-16 44 -30 90
-29 102 0 14 6 5 13 -22 7 -25 18 -58 25 -73 l11 -29 33 28 c17 15 31 31 29
36 -1 5 -24 41 -51 79 -37 52 -51 65 -54 52 -3 -11 -4 -9 -4 7 0 14 -19 54
-47 94 -48 71 -54 101 -23 120 24 16 44 1 96 -73 l44 -63 89 89 c59 58 100
108 120 148 38 75 82 140 122 183 35 37 42 28 26 -33z m272 -6 c-23 -12 -58
-40 -77 -62 -37 -43 -49 -43 -14 1 24 31 98 82 119 82 8 0 -4 -10 -28 -21z
m-115 -61 c-3 -8 -6 -5 -6 6 -1 11 2 17 5 13 3 -3 4 -12 1 -19z m-74 -395
c-13 -2 -33 -2 -45 0 -13 2 -3 4 22 4 25 0 35 -2 23 -4z m162 -3 c18 -5 2 -6
-40 -3 -38 3 -72 7 -74 9 -8 7 84 2 114 -6z m-968 -1161 c39 -15 73 -49 73
-73 -1 -16 -4 -14 -15 11 -16 37 -41 52 -104 63 -38 6 -40 8 -14 9 17 0 44 -4
60 -10z m1772 1 c-63 -11 -88 -26 -104 -63 -11 -25 -14 -27 -15 -11 0 41 66
83 130 82 31 0 30 -1 -11 -8z m-1896 -19 c-17 -11 -36 -28 -42 -38 -6 -10 -11
-13 -11 -7 0 14 21 39 45 52 35 19 42 13 8 -7z m1987 4 c17 -9 30 -17 30 -19
0 -3 3 -13 6 -23 5 -17 5 -17 -6 0 -7 10 -26 27 -43 38 -38 23 -28 25 13 4z
m-854 -48 l-58 -53 128 -98 c110 -84 129 -95 135 -79 7 16 8 16 8 1 1 -28 -17
-30 -50 -6 -18 13 -34 19 -36 13 -2 -5 -61 -102 -131 -215 -90 -145 -133 -205
-146 -205 -13 0 -55 60 -147 209 -70 115 -130 211 -133 213 -3 3 -18 -4 -34
-16 -17 -12 -33 -21 -36 -21 -6 0 -26 69 -25 85 1 6 7 -8 13 -30 7 -22 16 -39
20 -38 4 1 62 43 128 94 l122 93 -60 53 -59 53 210 0 210 -1 -59 -52z m282 16
c-5 -21 -12 -40 -15 -43 -6 -6 7 61 14 73 10 17 11 4 1 -30z m-828 -82 c11
-46 19 -85 17 -88 -4 -3 -47 156 -47 173 0 20 11 -10 30 -85z m-515 -1261
l125 0 0 -144 c0 -80 -3 -146 -7 -148 -5 -2 -30 -1 -58 3 l-50 6 53 1 52 2 0
70 0 70 -115 0 -115 0 0 -70 0 -70 53 -2 52 -1 -46 -6 c-41 -5 -46 -8 -39 -26
13 -33 46 -56 89 -62 36 -5 44 -2 76 30 37 37 42 38 25 6 -13 -23 -61 -49 -90
-49 -41 0 -86 30 -111 73 l-23 42 -1 790 c-1 669 0 690 2 138 l3 -653 125 0z
m1964 523 c-2 -725 -1 -788 15 -791 9 -2 16 -9 16 -15 0 -25 -105 -299 -116
-304 -12 -4 -145 39 -174 57 -13 8 -11 20 13 89 23 62 26 84 18 100 -15 28
-14 38 2 16 14 -18 18 -16 30 18 6 16 2 18 -26 15 l-32 -3 -3 148 -3 147 126
0 125 0 0 655 c0 360 3 655 6 655 3 0 4 -354 3 -787z m-660 678 c-12 -45 -24
-79 -26 -77 -2 2 6 40 18 85 12 45 24 79 26 77 2 -2 -6 -40 -18 -85z m-499
-2571 c0 -407 1 -743 2 -747 3 -11 -62 -53 -81 -53 -9 1 -2 7 14 15 28 13 25
13 -57 14 -71 1 -88 -2 -88 -14 0 -10 15 -15 53 -18 l52 -4 -57 0 c-31 0 -63
-4 -70 -10 -36 -29 -100 -53 -125 -47 -19 4 -24 3 -15 -4 19 -13 -33 -22 -112
-21 l-61 1 60 9 c84 12 147 35 196 71 l43 31 -23 18 c-17 14 -19 19 -7 19 8 0
20 -8 25 -19 8 -14 5 -23 -17 -43 -15 -14 -40 -33 -57 -42 -26 -15 -27 -16 -5
-10 50 13 110 54 110 76 0 35 -29 58 -71 58 -34 0 -68 -19 -37 -21 9 0 8 -2
-2 -6 -8 -4 -33 -21 -55 -40 -43 -37 -119 -64 -174 -62 -28 1 -23 3 21 10 74
11 123 36 176 92 l42 45 0 721 0 721 160 0 160 0 0 -740z m540 19 l0 -721 43
-45 c52 -56 101 -81 175 -92 44 -7 49 -9 21 -10 -56 -2 -131 25 -176 64 -23
19 -47 35 -55 36 -10 0 -10 2 0 6 22 9 1 23 -35 23 -43 0 -73 -24 -73 -56 0
-24 57 -65 110 -78 22 -6 21 -5 -5 10 -16 9 -42 28 -57 42 -22 20 -25 29 -17
43 5 11 17 19 25 19 12 0 10 -5 -7 -19 l-23 -18 43 -31 c49 -35 111 -58 196
-72 58 -9 57 -9 -30 -6 -90 3 -150 21 -215 63 -15 10 -46 16 -80 16 l-55 0 53
4 c37 3 52 8 52 18 0 12 -17 15 -87 14 -83 -1 -86 -1 -58 -14 17 -8 23 -14 14
-15 -19 0 -83 42 -81 53 1 4 2 340 2 747 l0 740 160 0 160 0 0 -721z m-1202
-866 c-46 -5 -68 -33 -68 -85 l0 -38 364 0 365 0 4 23 c4 19 4 18 6 -5 l1 -28
-376 0 -376 0 4 56 c6 66 23 85 77 82 l36 -1 -37 -4z m1597 -7 c13 -9 20 -30
23 -70 l4 -56 -376 0 -376 0 1 28 c2 23 2 24 6 5 l4 -23 365 0 364 0 0 38 c0
52 -22 80 -68 85 l-37 4 36 1 c19 1 43 -4 54 -12z m-365 -251 c134 -20 209
-43 224 -67 45 -73 -170 -118 -604 -125 -281 -5 -437 3 -606 32 -114 20 -159
41 -159 75 0 34 45 55 165 75 169 29 260 33 565 31 224 -2 329 -8 415 -21z"/>
<path d="M3360 6975 c-7 -8 -10 -22 -6 -30 13 -34 198 -295 209 -295 7 0 21 7
31 15 19 14 18 17 -21 72 -22 32 -70 102 -107 156 -37 53 -73 97 -81 97 -7 0
-18 -7 -25 -15z"/>
<path d="M4524 6878 c-42 -62 -92 -134 -111 -159 l-33 -47 27 -17 c26 -18 27
-17 50 11 12 16 62 87 110 157 71 104 85 131 77 145 -24 37 -42 24 -120 -90z"/>
<path d="M3754 6568 c-26 -20 -29 -26 -20 -50 17 -49 -35 -78 -75 -42 -16 14
-21 12 -67 -20 -27 -20 -52 -36 -56 -36 -3 0 -13 18 -22 41 l-17 40 -28 -27
c-83 -80 -209 -309 -209 -380 0 -106 57 -186 144 -204 37 -7 237 -10 628 -8
l574 3 41 27 c80 53 104 168 58 277 -34 81 -93 178 -153 253 l-47 58 -17 -40
-17 -40 -88 60 c-81 56 -89 60 -101 43 -7 -10 -11 -24 -10 -33 5 -22 47 -25
63 -3 8 10 15 13 15 8 1 -33 -58 -47 -81 -19 -10 12 -10 22 -2 45 10 26 9 31
-17 49 -15 11 -33 20 -39 20 -5 0 -27 -30 -47 -66 -20 -36 -48 -79 -61 -95
-23 -27 -29 -29 -98 -29 -72 0 -74 1 -104 37 -16 20 -44 63 -61 95 -17 32 -37
58 -44 58 -7 0 -26 -10 -42 -22z"/>
<path d="M3677 6516 c-23 -18 -12 -46 18 -46 29 0 38 13 30 40 -7 23 -23 25
-48 6z"/>
<path d="M3866 5552 c45 -41 55 -59 89 -152 21 -58 39 -106 40 -108 1 -2 19
43 40 100 31 87 45 111 88 156 l51 52 -179 0 -180 -1 51 -47z"/>
<path d="M3856 5454 c-44 -33 -46 -37 -33 -57 7 -12 49 -82 92 -155 63 -108
80 -131 90 -120 14 15 175 283 175 291 0 3 -21 23 -46 43 -54 44 -50 48 -96
-84 -18 -51 -37 -91 -42 -89 -5 2 -26 46 -45 99 -20 53 -39 99 -42 102 -3 4
-27 -10 -53 -30z"/>
<path d="M3762 5382 c-18 -15 -32 -31 -32 -36 0 -9 179 -305 232 -383 16 -24
32 -43 37 -43 8 0 275 429 270 434 -2 1 -20 15 -40 29 l-36 27 -93 -155 c-51
-86 -96 -158 -101 -161 -4 -2 -49 65 -100 151 -50 85 -94 157 -98 159 -3 2
-21 -8 -39 -22z"/>
<path d="M2960 4160 l0 -60 120 0 120 0 0 60 0 60 -120 0 -120 0 0 -60z"/>
<path d="M4800 4160 l0 -60 120 0 120 0 0 60 0 60 -120 0 -120 0 0 -60z"/>
<path d="M4800 4020 l0 -70 30 0 c25 0 32 6 44 35 8 19 19 35 23 35 4 0 32 -9
61 -20 29 -11 57 -20 62 -20 6 0 10 25 10 55 l0 55 -115 0 -115 0 0 -70z"/>
<path d="M4841 3865 c-29 -79 -50 -148 -47 -153 5 -9 146 -62 164 -62 10 0
117 288 109 296 -6 6 -159 64 -168 64 -3 0 -29 -65 -58 -145z m-11 -140 c0 -8
-7 -15 -15 -15 -8 0 -15 7 -15 15 0 8 7 15 15 15 8 0 15 -7 15 -15z"/>
<path d="M3580 2845 l0 -695 30 0 c20 0 39 -9 54 -25 23 -25 28 -26 118 -23
l93 3 3 718 2 717 -150 0 -150 0 0 -695z"/>
<path d="M4122 2823 l3 -718 93 -3 c90 -3 95 -2 118 23 15 16 34 25 54 25 l30
0 0 695 0 695 -150 0 -150 0 2 -717z"/>
<path d="M4468 1993 c7 -3 16 -2 19 1 4 3 -2 6 -13 5 -11 0 -14 -3 -6 -6z"/>
</g>
</svg>
